<?xml version="1.0" standalone="no"?>
<!DOCTYPE svg PUBLIC "-//W3C//DTD SVG 1.1//EN" "http://www.w3.org/Graphics/SVG/1.1/DTD/svg11.dtd">
<svg xmlns="http://www.w3.org/2000/svg" id="Layer_1" data-name="Layer 1" viewBox="0 0 720 267.58" width="720" height="267.5799865722656">
  <g>
    <g>
      <path d="M221.89,1.27v38.71c0,18.99-7.47,33.09-30.38,33.09-20.79,0-30.05-11.56-31.11-28.53h8.91c.95,14.74,8.62,20.68,22.2,20.68,14.74,0,21.47-7,21.47-25.24V1.27h8.91Z"/>
      <path d="M248.99,36.21C249.14,14.68,266.32-.16,289.44,0s40.2,15.23,40.05,36.76c-.15,21.64-17.33,36.47-40.56,36.31-23.12-.16-40.09-15.23-39.95-36.87ZM320.05,36.7c.12-16.97-12.42-28.72-30.67-28.85-18.14-.12-30.84,11.56-30.95,28.43-.12,17.08,12.42,28.83,30.56,28.95,18.24.13,30.94-11.56,31.06-28.53Z"/>
      <path d="M528.85,71.81h-8.27l-48.68-55.79v55.79h-9.12V1.27h6.86l50.09,57.2V1.27h9.12v70.53Z"/>
      <path d="M428.79,71.81h-9.12v-31.82h-52.67v31.82h-9.12V1.27h9.12v31.08h52.67V1.27h9.12v70.53Z"/>
    </g>
    <g>
      <path d="M0,170.58l5.09-6.26c7,4.77,16.86,7.11,26.83,7.11,11.77,0,20.26-4.24,20.26-12.41,0-9.33-11.14-10.5-21.11-12.2-23.02-3.71-28.96-9.02-28.96-19.09,0-16.76,16.76-21.53,31.08-21.53,9.97,0,20.05,3.18,27.58,7.42l-5.3,6.15c-7.32-3.92-14.32-5.73-22.49-5.73-14.11,0-21.43,4.88-21.43,13.05,0,6.68,4.99,9.65,21.21,11.98,10.18,1.59,28.96,4.14,28.96,19.73,0,12.2-11.56,20.47-29.91,20.47-13.36,0-25.99-4.77-31.82-8.7Z"/>
      <path d="M488.39,160.29l-8.06,17.71h-10.08s32.35-70.53,32.35-70.53h10.5s32.35,70.53,32.35,70.53h-10.18s-8.27-17.71-8.27-17.71h-38.61ZM491.89,152.66h31.5s-15.59-36.06-15.59-36.06l-15.91,36.06Z"/>
      <path d="M454.99,178.01h-44.53s0-70.53,0-70.53h9.12s0,62.79,0,62.79h35.41v7.74Z"/>
      <path d="M156.8,160.29l-8.27,17.71h-10.18l32.35-70.53h10.5l32.35,70.53h-10.08l-8.06-17.71h-38.61ZM175.99,116.59l-15.59,36.06h31.5l-15.91-36.06Z"/>
      <path d="M335.43,160.29l-8.27,17.71h-10.18l32.35-70.53h10.5l32.35,70.53h-10.08l-8.06-17.71h-38.61ZM354.62,116.59l-15.59,36.06h31.5l-15.91-36.06Z"/>
      <path d="M110.04,115.22v62.79h-9.12v-62.79h-23.7v-7.74h56.63v7.74h-23.81Z"/>
      <path d="M296.28,178.01h-8.27l-44.65-55.79v55.79h-9.12v-70.53h8.38l44.55,55.68v-55.68h9.12v70.53Z"/>
      <path d="M626.68,178.01h-8.27l-44.65-55.79v55.79h-9.12v-70.53h8.38l44.55,55.68v-55.68h9.12v70.53Z"/>
      <path d="M720,142.69c0,21.64-17.18,35.32-40.41,35.32h-28.42v-70.53h28.42c23.23,0,40.41,13.68,40.41,35.21ZM710.56,142.69c0-16.44-12.2-27.36-30.97-27.36h-19.3v54.83h19.3c18.77,0,30.97-10.92,30.97-27.47Z"/>
    </g>
  </g>
  <g>
    <path d="M282.31,247.82h-20.2v5.58l13.45.05c-.55,1.81-1.43,3.32-2.79,4.77-2.44,2.34-5.88,3.63-9.69,3.63h-.53c-4.7-.19-8.77-2.38-10.87-5.86l-.16-.2c-.98-1.85-1.46-3.82-1.46-5.99,0-7.07,5.35-12.01,13.01-12.01,5.01,0,9.29,2.23,11.44,5.96l.17.29,6.94-.06-.35-.79c-3.07-6.86-10.04-11.12-18.19-11.12-11.26,0-19.44,7.46-19.44,17.74s7.8,17.63,18.99,17.79h1.45c.53-.05,1.11-.1,1.73-.11l.96-.15c2.98-.52,7.22-1.8,10.53-5,.08-.08.17-.18.25-.3.71-.67,1.35-1.42,1.85-2.15l.22-.24c1.77-2.64,2.74-5.7,2.89-9.1,0-.9-.05-1.33-.1-1.7l-.1-1.01Z"/>
    <path d="M327.4,242.3c0-5.83-4.63-9.6-11.8-9.6h-16.89v34.33h6.23l.05-15.02h4.84l11.03,14.98h8.03l-11.63-15.04c6.11-.57,10.15-4.34,10.15-9.64ZM315.6,246.32h-10.61v-8h10.61c2.01,0,5.37.51,5.37,3.92,0,2.59-1.96,4.07-5.37,4.07Z"/>
    <path d="M361.32,232.05c-11.26,0-19.44,7.46-19.44,17.74s8.17,17.79,19.44,17.79,19.44-7.48,19.44-17.79-8.17-17.74-19.44-17.74ZM374.33,249.79c0,7.1-5.35,12.06-13.01,12.06s-13.01-4.96-13.01-12.06,5.35-12.01,13.01-12.01,13.01,4.94,13.01,12.01Z"/>
    <path d="M422.06,251.38c0,7.63-2.47,10.46-9.12,10.46s-9.17-2.84-9.17-10.46v-18.74h-6.48v18.74c0,10.9,5.12,16.19,15.64,16.19s15.59-5.3,15.59-16.19v-18.74h-6.48v18.74Z"/>
    <path d="M464.56,232.7h-16.89v34.33h6.23l.05-15.02h10.61c7.06,0,11.8-3.9,11.8-9.7s-4.63-9.6-11.8-9.6ZM469.93,242.25c0,2.59-1.96,4.07-5.37,4.07h-10.61v-8h10.61c2.01,0,5.37.51,5.37,3.92Z"/>
  </g>
</svg>